<svg width="800" height="800" viewBox="0 0 800 800" fill="none" xmlns="http://www.w3.org/2000/svg">
<path d="M733.335 266.665H666.668M666.668 266.665H633.335C566.668 200.057 466.668 133.324 400.001 199.998M666.668 266.665V533.33M400.001 199.998L299.987 300.052C297.341 302.699 296.019 304.022 294.954 305.193C271.834 330.629 271.844 369.473 294.977 394.9C296.042 396.07 297.367 397.393 300.012 400.036C302.657 402.68 303.98 404.003 305.151 405.066C330.582 428.176 369.415 428.173 394.838 405.053C396.008 403.99 397.331 402.666 399.975 400.023L433.321 366.676M400.001 199.998C333.335 133.324 233.335 200.06 166.668 266.667H133.335M666.668 533.33V633.33H733.335M666.668 533.33H572.388M133.335 266.667H66.668M133.335 266.667V533.33M133.335 533.33H200.001L212.734 558.796C229.856 593.04 277.03 597.293 300.001 566.663C318.176 584.84 327.264 593.926 337.068 598.786C355.718 608.026 377.618 608.026 396.268 598.786C406.071 593.926 415.161 584.84 433.335 566.663L450.001 583.33C452.655 585.983 453.985 587.313 455.158 588.383C480.588 611.496 519.415 611.496 544.845 588.383C546.018 587.313 547.348 585.983 550.001 583.33C552.655 580.676 553.985 579.35 555.051 578.173C578.165 552.746 578.165 513.916 555.051 488.49C553.985 487.313 552.655 485.986 550.001 483.33L500.001 433.33M133.335 533.33V633.33H66.668" stroke="#1F2937" stroke-width="66.6667" stroke-linecap="round" stroke-linejoin="round"/>
</svg>
