<svg width="800" height="800" viewBox="0 0 800 800" fill="none" xmlns="http://www.w3.org/2000/svg">
<path d="M100 273.334C100 235.997 100 217.328 107.266 203.068C113.658 190.523 123.856 180.325 136.401 173.933C150.661 166.667 169.33 166.667 206.667 166.667H322.484C338.79 166.667 346.943 166.667 354.617 168.509C361.417 170.142 367.92 172.836 373.887 176.491C380.613 180.614 386.38 186.379 397.91 197.909L402.09 202.092C413.62 213.622 419.387 219.387 426.113 223.51C432.08 227.165 438.583 229.859 445.383 231.492C453.057 233.334 461.21 233.334 477.517 233.334H593.333C630.67 233.334 649.34 233.334 663.6 240.6C676.143 246.991 686.343 257.19 692.733 269.734C700 283.995 700 302.664 700 340V526.667C700 564.004 700 582.674 692.733 596.934C686.343 609.477 676.143 619.677 663.6 626.067C649.34 633.334 630.67 633.334 593.333 633.334H206.667C169.33 633.334 150.661 633.334 136.401 626.067C123.856 619.677 113.658 609.477 107.266 596.934C100 582.674 100 564.004 100 526.667V273.334Z" stroke="#1F2937" stroke-width="66.6667" stroke-linecap="round" stroke-linejoin="round"/>
<path d="M500 366.666C500 366.666 489.803 366.666 487.5 366.666C453.353 366.666 423.59 354.83 400 333.333C376.41 354.83 346.65 366.666 312.501 366.666C310.199 366.666 300.001 366.666 300.001 366.666C300.001 366.666 300 388.89 300 401.846C300 465.106 342.493 518.263 400 533.333C457.507 518.263 500 465.106 500 401.846C500 388.89 500 366.666 500 366.666Z" stroke="#1F2937" stroke-width="66.6667" stroke-linecap="round" stroke-linejoin="round"/>
</svg>
